<svg width="72" height="72" viewBox="0 0 72 72" fill="none" xmlns="http://www.w3.org/2000/svg">
  <circle cx="36" cy="36" r="28" fill="#FFD60A"/>
  <circle cx="35.9998" cy="36.0001" r="25.3953" fill="#35311D"/>
  <path d="M11.3125 65.625C11.476 65.625 11.5878 65.5215 11.605 65.3662C11.9148 63.063 11.9922 63.063 14.3669 62.6058C14.5131 62.5799 14.625 62.4764 14.625 62.3125C14.625 62.1572 14.5131 62.0451 14.3669 62.0192C11.9922 61.6914 11.9062 61.6138 11.605 59.2674C11.5878 59.1121 11.476 59 11.3125 59C11.1576 59 11.0458 59.1121 11.02 59.276C10.7446 61.5879 10.6156 61.5793 8.25812 62.0192C8.11185 62.0537 8 62.1572 8 62.3125C8 62.485 8.11185 62.5799 8.29253 62.6058C10.6328 62.9854 10.7446 63.0457 11.02 65.349C11.0458 65.5215 11.1576 65.625 11.3125 65.625Z" fill="#FFFBE7"/>
  <path d="M11.7329 15.3192C12.0089 15.3192 12.1977 15.1445 12.2267 14.8824C12.7496 10.9956 12.8803 10.9956 16.889 10.2241C17.1359 10.1804 17.3247 10.0057 17.3247 9.72916C17.3247 9.46713 17.1359 9.27789 16.889 9.23421C12.8803 8.68104 12.7351 8.55002 12.2267 4.59044C12.1977 4.3284 12.0089 4.13916 11.7329 4.13916C11.4715 4.13916 11.2827 4.3284 11.2391 4.60499C10.7743 8.50635 10.5565 8.49179 6.57684 9.23421C6.32993 9.29244 6.14111 9.46713 6.14111 9.72916C6.14111 10.0203 6.32993 10.1804 6.63494 10.2241C10.5855 10.8646 10.7743 10.9665 11.2391 14.8533C11.2827 15.1445 11.4715 15.3192 11.7329 15.3192Z" fill="#FFF3B6"/>
  <path d="M64 22C64.1974 22 64.3325 21.875 64.3532 21.6875C64.7273 18.9063 64.8208 18.9063 67.6883 18.3542C67.8649 18.3229 68 18.1979 68 18C68 17.8125 67.8649 17.6771 67.6883 17.6458C64.8208 17.25 64.7169 17.1563 64.3532 14.3229C64.3325 14.1354 64.1974 14 64 14C63.813 14 63.6779 14.1354 63.6468 14.3333C63.3143 17.125 63.1584 17.1146 60.3117 17.6458C60.1351 17.6875 60 17.8125 60 18C60 18.2083 60.1351 18.3229 60.3532 18.3542C63.1792 18.8125 63.3143 18.8854 63.6468 21.6667C63.6779 21.875 63.813 22 64 22Z" fill="#FFFBE7"/>
  <path d="M61.5 60C61.6234 60 61.7078 59.9219 61.7208 59.8047C61.9545 58.0664 62.013 58.0664 63.8052 57.7214C63.9156 57.7018 64 57.6237 64 57.5C64 57.3828 63.9156 57.2982 63.8052 57.2786C62.013 57.0313 61.9481 56.9727 61.7208 55.2018C61.7078 55.0846 61.6234 55 61.5 55C61.3831 55 61.2987 55.0846 61.2792 55.2083C61.0714 56.9531 60.974 56.9466 59.1948 57.2786C59.0844 57.3047 59 57.3828 59 57.5C59 57.6302 59.0844 57.7018 59.2208 57.7214C60.987 58.0078 61.0714 58.0534 61.2792 59.7917C61.2987 59.9219 61.3831 60 61.5 60Z" fill="#FFF3B6"/>
  <path d="M42.9024 40.7591C43.8369 40.2847 44.9065 40.0146 46.0457 40.0146H46.0496C46.1654 40.0146 46.2195 39.8832 46.1345 39.8102C44.9498 38.8054 43.5966 37.9938 42.1301 37.4088C42.1147 37.4015 42.0992 37.3978 42.0838 37.3905C44.4818 35.7445 46.0418 33.0693 46.0418 30.0511C46.0418 25.0511 41.7633 21 36.4846 21C31.2059 21 26.9312 25.0511 26.9312 30.0511C26.9312 33.0693 28.4913 35.7445 30.8931 37.3905C30.8777 37.3978 30.8623 37.4015 30.8468 37.4088C29.1207 38.0985 27.5722 39.0876 26.24 40.3504C24.9155 41.5999 23.861 43.0813 23.1354 44.7117C22.4214 46.3083 22.0361 48.0188 22.0001 49.7518C21.9991 49.7908 22.0063 49.8295 22.0214 49.8658C22.0364 49.9021 22.059 49.9351 22.0878 49.963C22.1166 49.9909 22.151 50.0131 22.189 50.0282C22.227 50.0433 22.2678 50.0511 22.309 50.0511H24.6221C24.7881 50.0511 24.9271 49.9234 24.931 49.7664C25.0082 46.9489 26.2014 44.3102 28.3137 42.3102C30.4954 40.2409 33.3993 39.1022 36.4885 39.1022C38.6779 39.1022 40.7786 39.6752 42.5896 40.7482C42.6362 40.7758 42.6896 40.7914 42.7445 40.7933C42.7994 40.7952 42.8539 40.7834 42.9024 40.7591ZM36.4885 36.3285C34.7199 36.3285 33.0556 35.6752 31.8006 34.4891C31.1831 33.907 30.6936 33.2152 30.3603 32.4535C30.0269 31.6918 29.8563 30.8754 29.8583 30.0511C29.8583 28.3759 30.5495 26.7993 31.8006 25.6131C33.0517 24.427 34.716 23.7737 36.4885 23.7737C38.2609 23.7737 39.9213 24.427 41.1763 25.6131C41.7938 26.1952 42.2833 26.887 42.6167 27.6487C42.95 28.4104 43.1206 29.2268 43.1187 30.0511C43.1187 31.7263 42.4275 33.3029 41.1763 34.4891C39.9213 35.6752 38.257 36.3285 36.4885 36.3285ZM50.6911 45.0146H47.4474V41.9489C47.4474 41.7883 47.3084 41.6569 47.1385 41.6569H44.9761C44.8061 41.6569 44.6671 41.7883 44.6671 41.9489V45.0146H41.4235C41.2536 45.0146 41.1145 45.146 41.1145 45.3066V47.3504C41.1145 47.5109 41.2536 47.6423 41.4235 47.6423H44.6671V50.708C44.6671 50.8686 44.8061 51 44.9761 51H47.1385C47.3084 51 47.4474 50.8686 47.4474 50.708V47.6423H50.6911C50.861 47.6423 51 47.5109 51 47.3504V45.3066C51 45.146 50.861 45.0146 50.6911 45.0146Z" fill="#FFD60A"/>
</svg>