<svg fill="none" height="24" viewBox="0 0 72 24" width="72" xmlns="http://www.w3.org/2000/svg"><path clip-rule="evenodd" d="m11.3604.801309c1.4679-1.251582 3.6193-1.010613 4.8055.538221l6.7392 8.79987v-6.53368c0-1.99132 1.5299-3.60559849 3.4171-3.60559842 1.8872.00000008 3.4171 1.61427842 3.4171 3.60559842v16.73218c0 1.528-.9128 2.8901-2.2781 3.3994-1.3653.5094-2.8866.0553-3.7968-1.1332l-6.7397-8.8004v6.5634c0 1.9913-1.5299 3.6056-3.4171 3.6056s-3.4171-1.6143-3.4171-3.6056v-16.67592c0-.0195.0002-.03897.0005-.05841-.0069-1.06005.4272-2.1134 1.2694-2.831461zm-4.52623 2.889871c0-1.99131-1.52988-3.6055913-3.41708-3.6055912-1.88721.0000001-3.41709 1.6142812-3.41709 3.6055912v16.67592c0 1.9913 1.52988 3.6056 3.41709 3.6056 1.8872 0 3.41708-1.6143 3.41708-3.6056zm39.78883-2.35165c1.1861-1.548834 3.3376-1.789803 4.8055-.538221 1.4678 1.251581 1.6962 3.521761.5101 5.070601l-12.8141 16.73219c-.9102 1.1885-2.4315 1.6426-3.7968 1.1332-1.3653-.5093-2.2781-1.8714-2.2781-3.3994v-16.73218c0-1.99132 1.5299-3.60559831 3.4171-3.60559839 1.8872-.00000007 3.4171 1.61427839 3.4171 3.60559839v6.53368zm2.8479 22.66057c-2.2116 0-4.0878-1.7046-4.0878-4.2828s4.0878-6.9847 4.0878-6.9847 3.921 4.4585 3.921 6.9847c0 2.5261-1.7094 4.2828-3.921 4.2828zm9.6344-23.549345.0206.000068h4.8909v.000205l.0538-.000205c4.0398 0 7.3147 3.455567 7.3147 7.718227 0 2.60915-1.227 4.91605-3.1054 6.31305l3.022 4.0034c1.1023 1.4602.8739 3.5869-.51 4.75s-3.3994.9222-4.5016-.5381l-3.9815-5.2745v3.1967c0 1.8668-1.4342 3.3802-3.2035 3.3802-1.7692 0-3.2035-1.5134-3.2035-3.3802v-16.7886c0-1.86686 1.4343-3.380245 3.2035-3.380245z" fill="#ffd60a" fill-rule="evenodd"/></svg>